<svg xmlns="http://www.w3.org/2000/svg" xmlns:xlink="http://www.w3.org/1999/xlink" version="1.1" id="Layer_1" x="0px" y="0px" style="enable-background:new 0 0 1080 1080;" xml:space="preserve" viewBox="394.86 335.16 290.28 409.68">
<style type="text/css">
	.st0{fill:url(#SVGID_1_);}
	.st1{fill:url(#SVGID_2_);}
	.st2{fill:#161348;}
</style>
<g>
	<g>
		<linearGradient id="SVGID_1_" gradientUnits="userSpaceOnUse" x1="394.8744" y1="481.9593" x2="685.1256" y2="481.9593">
			<stop offset="0" style="stop-color:#3877BB"/>
			<stop offset="0.2257" style="stop-color:#00A5CD"/>
			<stop offset="0.5115" style="stop-color:#3DBDAF"/>
			<stop offset="0.7427" style="stop-color:#58BD8B"/>
			<stop offset="0.9416" style="stop-color:#88C65E"/>
		</linearGradient>
		<path class="st0" d="M396.88,546.08c1.64,2.35,8.65,10.52,22.27,18.29c26.31,15.01,53.18,11.6,63.79,9.55    c1.1-0.21,2.23-0.07,3.23,0.43c8.73,4.26,21.68,9.4,37.94,11.73c14.9,2.13,59.8,5.81,97.17-25.13    c31.04-25.69,52.1-71.29,40.18-113.68c-4.7-16.71-13.44-29.05-20.41-37c-1.22-1.39-3.08-2.03-4.89-1.67l-26.1,5.22    c-2.6,0.52-4.03,3.35-2.87,5.75c18.32,37.73,11.42,79.78-14.22,102.24c-19.73,17.28-44.72,17.83-55.92,17.13    c-1.08-0.07-1.52-0.71-1.69-1.08c-0.06-0.14-0.09-0.28-0.1-0.43c0-0.65,0.11-1.34,0.49-1.96c0.28-0.47,0.61-0.74,0.65-0.77    c0.75-0.66,28.41-31,34.46-64.95c1.33-7.44,8.21-52.04-22.78-77.9c-24.74-20.64-56.12-14.76-59.8-14.01    c-33.82,6.87-49.72,35.74-53.28,42.21c0,0-22.41,40.08-3.88,90.42c0.49,1.33,0.81,2.71,1.38,4c0.45,1,0.93,1.91,1,3.29    c0.04,0.7,0.08,1.62-0.49,2.14c-0.76,0.69-2.16,0.3-2.66,0.16c-13.93-3.91-25.23-27.32-25.23-27.32    c-5.08-10.53-7.09-19.32-7.66-22.04c-2.5-11.73-2.59-23.52-2.6-27.96c0-0.09,0-0.17,0-0.26v125.59c0,0,0,0.01,0,0.01v-21.42    c0-1.07,1.37-1.49,1.98-0.61C396.86,546.06,396.87,546.07,396.88,546.08z M459.32,468.12c0.46-8.51,1.83-33.63,20.7-45.47    c2.59-1.63,15.48-9.26,30.45-4.55c13.98,4.4,20.12,16.5,21.37,18.99c8.38,16.54,1.98,33.93-0.88,41.68    c-10.67,28.97-37.64,42.54-47.98,46.95c-1.32,0.56-2.84,0.19-3.75-0.92C472.5,516.57,457.82,495.81,459.32,468.12z"/>
		<linearGradient id="SVGID_2_" gradientUnits="userSpaceOnUse" x1="400.8091" y1="470.2513" x2="673.9781" y2="470.2513">
			<stop offset="0" style="stop-color:#3877BB"/>
			<stop offset="0.2257" style="stop-color:#00A5CD"/>
			<stop offset="0.5115" style="stop-color:#3DBDAF"/>
			<stop offset="0.7427" style="stop-color:#58BD8B"/>
			<stop offset="0.9416" style="stop-color:#88C65E"/>
		</linearGradient>
		<path class="st1" d="M483.39,477.82c3.1-0.32,5.99-0.62,9.03-0.93c0.8-0.08,1.43,0.65,1.24,1.43c-1.64,6.53-3.28,13.05-4.91,19.57    c-0.33,1.3,1.46,2.01,2.12,0.84c6.27-11.19,12.53-22.39,18.8-33.58c0.46-0.82-0.2-1.81-1.13-1.71c-3.39,0.35-6.42,0.66-9.53,0.98    c-0.8,0.08-1.43-0.66-1.23-1.44c1.77-6.79,3.53-13.57,5.3-20.36c0.34-1.31-1.47-2.03-2.12-0.84    c-6.23,11.45-12.45,22.89-18.68,34.34C481.81,476.93,482.46,477.91,483.39,477.82z"/>
		<path class="st2" d="M483,525.71c10.34-4.41,37.31-17.97,47.98-46.95c2.86-7.76,9.26-25.14,0.88-41.68    c-1.26-2.48-7.39-14.59-21.37-18.99c-14.98-4.71-27.86,2.92-30.45,4.55c-18.87,11.84-20.24,36.96-20.7,45.47    c-1.51,27.7,13.17,48.45,19.92,56.68C480.16,525.9,481.68,526.27,483,525.71z M500.93,441.78c0.65-1.19,2.46-0.47,2.12,0.84    c-1.77,6.79-3.53,13.57-5.3,20.36c-0.2,0.78,0.43,1.52,1.23,1.44c3.11-0.32,6.14-0.63,9.53-0.98c0.93-0.1,1.59,0.89,1.13,1.71    c-6.27,11.19-12.53,22.39-18.8,33.58c-0.66,1.17-2.45,0.46-2.12-0.84c1.64-6.52,3.28-13.05,4.91-19.57    c0.19-0.78-0.44-1.51-1.24-1.43c-3.04,0.31-5.93,0.61-9.03,0.93c-0.92,0.09-1.58-0.88-1.13-1.7    C488.48,464.67,494.71,453.23,500.93,441.78z"/>
		<path class="st2" d="M636.4,335.16h-8.62H452.22h-8.62c-26.91,0-48.72,21.81-48.72,48.72v8.61v49.34c0,0.05,0,0.13,0,0.19    c0,0.13,0,0.28,0,0.45c0,0.09,0,0.16,0,0.26c0.01,4.45,0.1,16.24,2.6,27.96c0.58,2.71,2.59,11.51,7.66,22.04    c0,0,11.3,23.42,25.23,27.32c0.5,0.14,1.91,0.53,2.66-0.16c0.57-0.51,0.53-1.44,0.49-2.14c-0.07-1.37-0.56-2.28-1-3.29    c-0.57-1.29-0.9-2.68-1.38-4c-18.53-50.34,3.88-90.42,3.88-90.42c3.57-6.48,19.46-35.35,53.28-42.21    c3.67-0.75,35.06-6.63,59.8,14.01c31,25.86,24.11,70.46,22.78,77.9c-6.05,33.95-33.71,64.29-34.46,64.95    c-0.04,0.04-0.37,0.31-0.65,0.77c-0.38,0.63-0.5,1.32-0.49,1.96c0,0.15,0.03,0.3,0.1,0.43c0.17,0.37,0.61,1.01,1.69,1.08    c11.2,0.71,36.19,0.15,55.92-17.13c25.64-22.45,32.53-64.51,14.22-102.24c-1.16-2.39,0.26-5.23,2.87-5.75l26.1-5.22    c1.81-0.36,3.67,0.28,4.89,1.67c6.97,7.95,15.7,20.29,20.41,37c11.93,42.39-9.14,87.99-40.18,113.68    c-37.38,30.93-82.27,27.26-97.17,25.13c-16.26-2.33-29.21-7.46-37.94-11.73c-1.01-0.49-2.13-0.64-3.23-0.43    c-10.61,2.05-37.48,5.46-63.79-9.55c-13.63-7.77-20.63-15.94-22.27-18.29c-0.01-0.01-0.02-0.02-0.02-0.03    c-0.61-0.88-1.98-0.46-1.98,0.61v21.42v8.61c0,26.91,21.81,48.72,48.72,48.72h8.62h175.56h8.62c26.91,0,48.72-21.81,48.72-48.72    v-192.8C685.13,356.97,663.31,335.16,636.4,335.16z"/>
	</g>
	<g>
		<path class="st2" d="M461.28,684.74H412.3c0.4,4.84,2.1,8.63,5.08,11.37c2.98,2.74,6.65,4.11,11.01,4.11    c6.29,0,10.76-2.7,13.42-8.1h18.26c-1.93,6.45-5.64,11.75-11.13,15.9c-5.48,4.15-12.21,6.23-20.2,6.23    c-6.45,0-12.24-1.43-17.35-4.29c-5.12-2.86-9.11-6.91-11.97-12.15c-2.86-5.24-4.29-11.29-4.29-18.14c0-6.93,1.41-13.02,4.23-18.26    c2.82-5.24,6.77-9.27,11.85-12.09c5.08-2.82,10.92-4.23,17.54-4.23c6.37,0,12.07,1.37,17.11,4.11c5.04,2.74,8.95,6.63,11.73,11.67    c2.78,5.04,4.17,10.82,4.17,17.35C461.76,680.63,461.6,682.8,461.28,684.74z M444.23,673.37c-0.08-4.35-1.65-7.84-4.72-10.46    c-3.07-2.62-6.81-3.93-11.25-3.93c-4.19,0-7.72,1.27-10.58,3.81c-2.86,2.54-4.62,6.07-5.26,10.58H444.23z"/>
		<path class="st2" d="M502.03,697.56l16.93-51.4h18.02l-24.79,67h-20.56l-24.67-67h18.14L502.03,697.56z"/>
		<path class="st2" d="M610.63,646.16l-41.48,98.68h-18.02l14.51-33.38l-26.85-65.31h18.99l17.29,46.8l17.54-46.8H610.63z"/>
		<path class="st2" d="M619.4,661.4c2.7-5.24,6.37-9.27,11.01-12.09c4.64-2.82,9.81-4.23,15.54-4.23c5,0,9.37,1.01,13.12,3.02    c3.75,2.02,6.75,4.56,9.01,7.62v-9.55h17.05v67h-17.05v-9.8c-2.18,3.14-5.18,5.75-9.01,7.8c-3.83,2.06-8.24,3.08-13.24,3.08    c-5.64,0-10.78-1.45-15.42-4.35c-4.64-2.9-8.3-6.99-11.01-12.27c-2.7-5.28-4.05-11.35-4.05-18.2    C615.35,672.64,616.7,666.64,619.4,661.4z M665.66,669.08c-1.61-2.94-3.79-5.2-6.53-6.77c-2.74-1.57-5.68-2.36-8.83-2.36    c-3.14,0-6.05,0.77-8.71,2.3c-2.66,1.53-4.82,3.77-6.47,6.71c-1.65,2.94-2.48,6.43-2.48,10.46c0,4.03,0.83,7.56,2.48,10.58    c1.65,3.02,3.83,5.34,6.53,6.95c2.7,1.61,5.58,2.42,8.65,2.42c3.14,0,6.09-0.79,8.83-2.36c2.74-1.57,4.92-3.83,6.53-6.77    c1.61-2.94,2.42-6.47,2.42-10.58C668.07,675.55,667.27,672.02,665.66,669.08z"/>
	</g>
</g>
</svg>
